<svg width="164" height="215" viewBox="0 0 164 215" fill="none" xmlns="http://www.w3.org/2000/svg">
<path d="M-47.446 13.1491C-47.868 13.1491 -48.2326 12.9954 -48.5395 12.6878C-48.8465 12.3802 -49 12.0149 -49 11.592V1.55714C-49 1.13421 -48.8465 0.768954 -48.5395 0.461372C-48.2326 0.15379 -47.868 0 -47.446 0H-37.431C-37.0089 0 -36.6444 0.15379 -36.3374 0.461372C-36.0304 0.768954 -35.8769 1.13421 -35.8769 1.55714V11.592C-35.8769 12.0149 -36.0304 12.3802 -36.3374 12.6878C-36.6444 12.9954 -37.0089 13.1491 -37.431 13.1491H-47.446Z" fill="black"/>
<path d="M2.52328 13.1491C2.1012 13.1491 1.73667 12.9954 1.4297 12.6878C1.12272 12.3802 0.969234 12.0149 0.969234 11.592V1.55714C0.969234 1.13421 1.12272 0.768954 1.4297 0.461372C1.73667 0.15379 2.1012 0 2.52328 0H12.5383C12.9604 0 13.3249 0.15379 13.6319 0.461372C13.9388 0.768954 14.0923 1.13421 14.0923 1.55714V11.592C14.0923 12.0149 13.9388 12.3802 13.6319 12.6878C13.3249 12.9954 12.9604 13.1491 12.5383 13.1491H2.52328Z" fill="black"/>
<path d="M52.4925 13.1491C52.0704 13.1491 51.7059 12.9954 51.3989 12.6878C51.092 12.3802 50.9385 12.0149 50.9385 11.592V1.55714C50.9385 1.13421 51.092 0.768954 51.3989 0.461372C51.7059 0.15379 52.0704 0 52.4925 0H62.5075C62.9296 0 63.2941 0.15379 63.6011 0.461372C63.9081 0.768954 64.0615 1.13421 64.0615 1.55714V11.592C64.0615 12.0149 63.9081 12.3802 63.6011 12.6878C63.2941 12.9954 62.9296 13.1491 62.5075 13.1491H52.4925Z" fill="black"/>
<path d="M102.462 13.1491C102.04 13.1491 101.675 12.9954 101.368 12.6878C101.061 12.3802 100.908 12.0149 100.908 11.592V1.55714C100.908 1.13421 101.061 0.768954 101.368 0.461372C101.675 0.15379 102.04 0 102.462 0H112.477C112.899 0 113.263 0.15379 113.57 0.461372C113.877 0.768954 114.031 1.13421 114.031 1.55714V11.592C114.031 12.0149 113.877 12.3802 113.57 12.6878C113.263 12.9954 112.899 13.1491 112.477 13.1491H102.462Z" fill="black"/>
<path d="M152.431 13.1491C152.009 13.1491 151.644 12.9954 151.337 12.6878C151.03 12.3802 150.877 12.0149 150.877 11.592V1.55714C150.877 1.13421 151.03 0.768954 151.337 0.461372C151.644 0.15379 152.009 0 152.431 0H162.446C162.868 0 163.233 0.15379 163.54 0.461372C163.847 0.768954 164 1.13421 164 1.55714V11.592C164 12.0149 163.847 12.3802 163.54 12.6878C163.233 12.9954 162.868 13.1491 162.446 13.1491H152.431Z" fill="black"/>
<path d="M-47.446 80.4328C-47.868 80.4328 -48.2326 80.279 -48.5395 79.9714C-48.8465 79.6638 -49 79.2986 -49 78.8756V68.8408C-49 68.4178 -48.8465 68.0526 -48.5395 67.745C-48.2326 67.4374 -47.868 67.2836 -47.446 67.2836H-37.431C-37.0089 67.2836 -36.6444 67.4374 -36.3374 67.745C-36.0304 68.0526 -35.8769 68.4178 -35.8769 68.8408V78.8756C-35.8769 79.2986 -36.0304 79.6638 -36.3374 79.9714C-36.6444 80.279 -37.0089 80.4328 -37.431 80.4328H-47.446Z" fill="black"/>
<path d="M2.52328 80.4328C2.1012 80.4328 1.73667 80.279 1.4297 79.9714C1.12272 79.6638 0.969234 79.2986 0.969234 78.8756V68.8408C0.969234 68.4178 1.12272 68.0526 1.4297 67.745C1.73667 67.4374 2.1012 67.2836 2.52328 67.2836H12.5383C12.9604 67.2836 13.3249 67.4374 13.6319 67.745C13.9388 68.0526 14.0923 68.4178 14.0923 68.8408V78.8756C14.0923 79.2986 13.9388 79.6638 13.6319 79.9714C13.3249 80.279 12.9604 80.4328 12.5383 80.4328H2.52328Z" fill="black"/>
<path d="M52.4925 80.4328C52.0704 80.4328 51.7059 80.279 51.3989 79.9714C51.092 79.6638 50.9385 79.2986 50.9385 78.8756V68.8408C50.9385 68.4178 51.092 68.0526 51.3989 67.745C51.7059 67.4374 52.0704 67.2836 52.4925 67.2836H62.5075C62.9296 67.2836 63.2941 67.4374 63.6011 67.745C63.9081 68.0526 64.0615 68.4178 64.0615 68.8408V78.8756C64.0615 79.2986 63.9081 79.6638 63.6011 79.9714C63.2941 80.279 62.9296 80.4328 62.5075 80.4328H52.4925Z" fill="black"/>
<path d="M102.462 80.4328C102.04 80.4328 101.675 80.279 101.368 79.9714C101.061 79.6638 100.908 79.2986 100.908 78.8756V68.8408C100.908 68.4178 101.061 68.0526 101.368 67.745C101.675 67.4374 102.04 67.2836 102.462 67.2836H112.477C112.899 67.2836 113.263 67.4374 113.57 67.745C113.877 68.0526 114.031 68.4178 114.031 68.8408V78.8756C114.031 79.2986 113.877 79.6638 113.57 79.9714C113.263 80.279 112.899 80.4328 112.477 80.4328H102.462Z" fill="black"/>
<path d="M152.431 80.4328C152.009 80.4328 151.644 80.279 151.337 79.9714C151.03 79.6638 150.877 79.2986 150.877 78.8756V68.8408C150.877 68.4178 151.03 68.0526 151.337 67.745C151.644 67.4374 152.009 67.2836 152.431 67.2836H162.446C162.868 67.2836 163.233 67.4374 163.54 67.745C163.847 68.0526 164 68.4178 164 68.8408V78.8756C164 79.2986 163.847 79.6638 163.54 79.9714C163.233 80.279 162.868 80.4328 162.446 80.4328H152.431Z" fill="black"/>
<path d="M-47.446 147.716C-47.868 147.716 -48.2326 147.563 -48.5395 147.255C-48.8465 146.947 -49 146.582 -49 146.159V136.124C-49 135.701 -48.8465 135.336 -48.5395 135.029C-48.2326 134.721 -47.868 134.567 -47.446 134.567H-37.431C-37.0089 134.567 -36.6444 134.721 -36.3374 135.029C-36.0304 135.336 -35.8769 135.701 -35.8769 136.124V146.159C-35.8769 146.582 -36.0304 146.947 -36.3374 147.255C-36.6444 147.563 -37.0089 147.716 -37.431 147.716H-47.446Z" fill="black"/>
<path d="M2.52328 147.716C2.1012 147.716 1.73667 147.563 1.4297 147.255C1.12272 146.947 0.969234 146.582 0.969234 146.159V136.124C0.969234 135.701 1.12272 135.336 1.4297 135.029C1.73667 134.721 2.1012 134.567 2.52328 134.567H12.5383C12.9604 134.567 13.3249 134.721 13.6319 135.029C13.9388 135.336 14.0923 135.701 14.0923 136.124V146.159C14.0923 146.582 13.9388 146.947 13.6319 147.255C13.3249 147.563 12.9604 147.716 12.5383 147.716H2.52328Z" fill="black"/>
<path d="M52.4925 147.716C52.0704 147.716 51.7059 147.563 51.3989 147.255C51.092 146.947 50.9385 146.582 50.9385 146.159V136.124C50.9385 135.701 51.092 135.336 51.3989 135.029C51.7059 134.721 52.0704 134.567 52.4925 134.567H62.5075C62.9296 134.567 63.2941 134.721 63.6011 135.029C63.9081 135.336 64.0615 135.701 64.0615 136.124V146.159C64.0615 146.582 63.9081 146.947 63.6011 147.255C63.2941 147.563 62.9296 147.716 62.5075 147.716H52.4925Z" fill="black"/>
<path d="M102.462 147.716C102.04 147.716 101.675 147.563 101.368 147.255C101.061 146.947 100.908 146.582 100.908 146.159V136.124C100.908 135.701 101.061 135.336 101.368 135.029C101.675 134.721 102.04 134.567 102.462 134.567H112.477C112.899 134.567 113.263 134.721 113.57 135.029C113.877 135.336 114.031 135.701 114.031 136.124V146.159C114.031 146.582 113.877 146.947 113.57 147.255C113.263 147.563 112.899 147.716 112.477 147.716H102.462Z" fill="black"/>
<path d="M152.431 147.716C152.009 147.716 151.644 147.563 151.337 147.255C151.03 146.947 150.877 146.582 150.877 146.159V136.124C150.877 135.701 151.03 135.336 151.337 135.029C151.644 134.721 152.009 134.567 152.431 134.567H162.446C162.868 134.567 163.233 134.721 163.54 135.029C163.847 135.336 164 135.701 164 136.124V146.159C164 146.582 163.847 146.947 163.54 147.255C163.233 147.563 162.868 147.716 162.446 147.716H152.431Z" fill="black"/>
<path d="M-47.446 215C-47.868 215 -48.2326 214.846 -48.5395 214.539C-48.8465 214.231 -49 213.866 -49 213.443V203.408C-49 202.985 -48.8465 202.62 -48.5395 202.312C-48.2326 202.005 -47.868 201.851 -47.446 201.851H-37.431C-37.0089 201.851 -36.6444 202.005 -36.3374 202.312C-36.0304 202.62 -35.8769 202.985 -35.8769 203.408V213.443C-35.8769 213.866 -36.0304 214.231 -36.3374 214.539C-36.6444 214.846 -37.0089 215 -37.431 215H-47.446Z" fill="black"/>
<path d="M2.52328 215C2.1012 215 1.73667 214.846 1.4297 214.539C1.12272 214.231 0.969234 213.866 0.969234 213.443V203.408C0.969234 202.985 1.12272 202.62 1.4297 202.312C1.73667 202.005 2.1012 201.851 2.52328 201.851H12.5383C12.9604 201.851 13.3249 202.005 13.6319 202.312C13.9388 202.62 14.0923 202.985 14.0923 203.408V213.443C14.0923 213.866 13.9388 214.231 13.6319 214.539C13.3249 214.846 12.9604 215 12.5383 215H2.52328Z" fill="black"/>
<path d="M52.4925 215C52.0704 215 51.7059 214.846 51.3989 214.539C51.092 214.231 50.9385 213.866 50.9385 213.443V203.408C50.9385 202.985 51.092 202.62 51.3989 202.312C51.7059 202.005 52.0704 201.851 52.4925 201.851H62.5075C62.9296 201.851 63.2941 202.005 63.6011 202.312C63.9081 202.62 64.0615 202.985 64.0615 203.408V213.443C64.0615 213.866 63.9081 214.231 63.6011 214.539C63.2941 214.846 62.9296 215 62.5075 215H52.4925Z" fill="black"/>
<path d="M102.462 215C102.04 215 101.675 214.846 101.368 214.539C101.061 214.231 100.908 213.866 100.908 213.443V203.408C100.908 202.985 101.061 202.62 101.368 202.312C101.675 202.005 102.04 201.851 102.462 201.851H112.477C112.899 201.851 113.263 202.005 113.57 202.312C113.877 202.62 114.031 202.985 114.031 203.408V213.443C114.031 213.866 113.877 214.231 113.57 214.539C113.263 214.846 112.899 215 112.477 215H102.462Z" fill="black"/>
<path d="M152.431 215C152.009 215 151.644 214.846 151.337 214.539C151.03 214.231 150.877 213.866 150.877 213.443V203.408C150.877 202.985 151.03 202.62 151.337 202.312C151.644 202.005 152.009 201.851 152.431 201.851H162.446C162.868 201.851 163.233 202.005 163.54 202.312C163.847 202.62 164 202.985 164 203.408V213.443C164 213.866 163.847 214.231 163.54 214.539C163.233 214.846 162.868 215 162.446 215H152.431Z" fill="black"/>
</svg>
