<svg width="54" height="34" viewBox="0 0 54 34" fill="none" xmlns="http://www.w3.org/2000/svg">
<path d="M32.0012 21.8934V29.8922C32.0012 32.0996 30.2096 33.8912 27.998 33.8912C25.7906 33.8912 23.999 32.0996 23.999 29.8922V21.8934C23.999 19.6817 25.7906 17.8901 27.998 17.8901C30.2096 17.8893 32.0012 19.6809 32.0012 21.8934Z" fill="black"/>
<path d="M32.0013 4.0042C32.0013 5.09269 31.5602 6.08737 30.8486 6.81162L30.7117 6.9443L30.6906 6.96542L27.7969 9.79904L23.9991 13.5115L22.4432 15.0336L21.9844 15.4882L21.959 15.5094C20.3812 16.9325 18.2896 17.7987 16.0011 17.7987C12.4821 17.7987 9.43889 15.7587 7.998 12.7924V29.8912C7.998 32.0986 6.21062 33.8902 3.999 33.8902C1.79161 33.8902 0 32.0986 0 29.8912V4.0042C0 1.79258 1.79161 0.000976562 3.999 0.000976562C5.25059 0.000976562 6.36527 0.575643 7.1022 1.47567L7.998 2.53458L8.87268 3.56729L12.8717 8.29138L12.9401 8.37251C13.6686 9.24296 14.7706 9.79988 16.0011 9.79988C16.8284 9.79988 17.6 9.54719 18.2389 9.11873C18.5473 8.9083 18.8262 8.65984 19.062 8.37251L19.1262 8.29983L23.143 3.58926L23.9999 2.5819L24.6473 1.82301L24.6642 1.80188C25.3757 0.717619 26.6062 0.0018212 27.9989 0.0018212C30.2097 0.000976098 32.0013 1.79258 32.0013 4.0042Z" fill="black"/>
<path d="M54 8.90056C54 13.8173 50.0179 17.7994 45.1012 17.7994H40.2021C37.9947 17.7994 36.2031 16.0078 36.2031 13.8004C36.2031 13.0931 36.3874 12.4331 36.7093 11.8584C37.3863 10.6322 38.6979 9.80059 40.203 9.80059C40.4776 9.80059 40.7514 9.83102 41.0092 9.88172L46.6291 10.9187C47.0195 11.0302 47.4438 11.0302 47.8553 10.8975C48.43 10.7133 48.8627 10.306 49.1027 9.80059C49.3258 9.33325 49.3731 8.78056 49.2016 8.24899C48.8762 7.24586 47.8638 6.65429 46.8522 6.83008L46.7195 6.85543L41.1089 7.90166L41.0236 7.91856C40.7624 7.97434 40.4878 8.00392 40.2047 8.00392C38.7004 8.00392 37.3888 7.17234 36.711 5.94188C36.4068 5.40186 36.2268 4.77987 36.2099 4.11985C36.2141 4.1114 36.2141 4.09872 36.2099 4.08943C36.2099 4.08943 36.2141 4.08943 36.2099 4.0852C36.2183 4.00407 36.2141 3.9221 36.2099 3.84097C36.2099 3.83674 36.2099 3.83674 36.2099 3.83252C36.2952 1.70203 38.053 0 40.2047 0H45.1037C50.0179 0.00169019 54 3.98801 54 8.90056Z" fill="black"/>
</svg>
