<svg width="32" height="32" viewBox="0 0 32 32" fill="none" xmlns="http://www.w3.org/2000/svg">
<rect width="32" height="32" rx="5" fill="black"/>
<g clip-path="url(#clip0_7_160)">
<path d="M21.75 19.28V21.28C21.7507 21.4657 21.715 21.6494 21.6453 21.8195C21.5756 21.9897 21.4733 22.1424 21.345 22.2679C21.2168 22.3934 21.0653 22.489 20.9005 22.5485C20.7356 22.6079 20.5608 22.63 20.3875 22.6133C18.4643 22.3904 16.6169 21.6894 14.9937 20.5667C13.4836 19.5431 12.2033 18.1774 11.2437 16.5667C10.1875 14.8275 9.53014 12.8473 9.32499 10.7866C9.30937 10.6023 9.32991 10.4165 9.3853 10.2411C9.44069 10.0656 9.52972 9.90444 9.64672 9.76773C9.76371 9.63102 9.90612 9.52179 10.0649 9.447C10.2236 9.37221 10.3952 9.33349 10.5687 9.33332H12.4437C12.7471 9.33013 13.0411 9.4447 13.2711 9.65567C13.5011 9.86664 13.6513 10.1596 13.6937 10.48C13.7729 11.12 13.9196 11.7485 14.1312 12.3533C14.2153 12.5919 14.2335 12.8513 14.1837 13.1006C14.1338 13.3499 14.018 13.5787 13.85 13.76L13.0562 14.6066C13.946 16.2757 15.2415 17.6576 16.8062 18.6067L17.6 17.76C17.7699 17.5807 17.9845 17.4572 18.2182 17.404C18.4519 17.3509 18.695 17.3703 18.9187 17.46C19.4858 17.6857 20.0749 17.8422 20.675 17.9267C20.9786 17.9723 21.2559 18.1355 21.4541 18.385C21.6523 18.6345 21.7576 18.953 21.75 19.28Z" fill="white" stroke="white" stroke-linecap="round" stroke-linejoin="round"/>
</g>
<defs>
<clipPath id="clip0_7_160">
<rect width="15" height="16" fill="white" transform="translate(8 8)"/>
</clipPath>
</defs>
</svg>
