<svg width="32" height="32" viewBox="0 0 32 32" fill="none" xmlns="http://www.w3.org/2000/svg">
<rect width="32" height="32" rx="5" fill="#83E573"/>
<g clip-path="url(#clip0_104_175)">
<path d="M21.7499 19.28V21.28C21.7506 21.4657 21.7149 21.6494 21.6452 21.8195C21.5755 21.9897 21.4732 22.1424 21.3449 22.2679C21.2167 22.3934 21.0653 22.489 20.9004 22.5485C20.7355 22.6079 20.5608 22.63 20.3874 22.6133C18.4642 22.3904 16.6168 21.6894 14.9936 20.5667C13.4835 19.5431 12.2032 18.1774 11.2436 16.5667C10.1874 14.8275 9.53005 12.8473 9.3249 10.7866C9.30928 10.6023 9.32982 10.4165 9.38521 10.2411C9.4406 10.0656 9.52963 9.90444 9.64663 9.76773C9.76362 9.63102 9.90603 9.52179 10.0648 9.447C10.2235 9.37221 10.3951 9.33349 10.5686 9.33332H12.4436C12.747 9.33013 13.041 9.4447 13.271 9.65567C13.501 9.86664 13.6512 10.1596 13.6936 10.48C13.7728 11.12 13.9196 11.7485 14.1311 12.3533C14.2152 12.5919 14.2334 12.8513 14.1836 13.1006C14.1337 13.3499 14.0179 13.5787 13.8499 13.76L13.0561 14.6066C13.9459 16.2757 15.2414 17.6576 16.8061 18.6067L17.5999 17.76C17.7698 17.5807 17.9844 17.4572 18.2181 17.404C18.4518 17.3509 18.6949 17.3703 18.9186 17.46C19.4857 17.6857 20.0749 17.8422 20.6749 17.9267C20.9785 17.9723 21.2558 18.1355 21.454 18.385C21.6522 18.6345 21.7575 18.953 21.7499 19.28Z" fill="white" stroke="white" stroke-linecap="round" stroke-linejoin="round"/>
</g>
<defs>
<clipPath id="clip0_104_175">
<rect width="15" height="16" fill="white" transform="translate(8 8)"/>
</clipPath>
</defs>
</svg>
